<?xml version="1.0" encoding="UTF-8" standalone="no"?>
<svg
   xmlns:dc="http://purl.org/dc/elements/1.1/"
   xmlns:cc="http://creativecommons.org/ns#"
   xmlns:rdf="http://www.w3.org/1999/02/22-rdf-syntax-ns#"
   xmlns:svg="http://www.w3.org/2000/svg"
   xmlns="http://www.w3.org/2000/svg"
   xmlns:sodipodi="http://sodipodi.sourceforge.net/DTD/sodipodi-0.dtd"
   xmlns:inkscape="http://www.inkscape.org/namespaces/inkscape"
   version="1.0"
   viewBox="0 0 3600.000000 2538.000000"
   preserveAspectRatio="xMidYMid meet"
   id="svg4534"
   sodipodi:docname="cat_placeholder.svg"
   inkscape:version="0.92.4 (5da689c313, 2019-01-14)">
  <metadata
     id="metadata4540">
    <rdf:RDF>
      <cc:Work
         rdf:about="">
        <dc:format>image/svg+xml</dc:format>
        <dc:type
           rdf:resource="http://purl.org/dc/dcmitype/StillImage" />
        <dc:title></dc:title>
      </cc:Work>
    </rdf:RDF>
  </metadata>
  <defs
     id="defs4538" />
  <sodipodi:namedview
     pagecolor="#ffffff"
     bordercolor="#666666"
     borderopacity="1"
     objecttolerance="10"
     gridtolerance="10"
     guidetolerance="10"
     inkscape:pageopacity="0"
     inkscape:pageshadow="2"
     inkscape:window-width="1920"
     inkscape:window-height="1017"
     id="namedview4536"
     showgrid="false"
     inkscape:zoom="0.17719461"
     inkscape:cx="3493.2893"
     inkscape:cy="1108.5099"
     inkscape:window-x="1912"
     inkscape:window-y="-8"
     inkscape:window-maximized="1"
     inkscape:current-layer="g4532" />
  <g
     transform="translate(0.000000,2538.000000) scale(0.100000,-0.100000)"
     id="g4532"
     stroke="none"
     fill="#000000">
    <path
       d="M 0,12690 V 0 H 18000 36000 V 12690 25380 H 18000 0 Z"
       id="path4554"
       style="fill:none" />
    <path
       d="m 29228,24293 c 268,-366 528,-999 712,-1731 181,-723 288,-1504 342,-2502 17,-306 17,-1459 0,-1800 -59,-1203 -168,-2249 -373,-3550 -22,-140 -41,-259 -42,-265 -1,-5 50,-113 114,-240 625,-1246 1041,-2750 1115,-4039 l 7,-118 61,6 c 145,13 4447,249 4452,243 7,-7 -161,-1525 -170,-1534 -3,-4 -999,-69 -2213,-145 -1213,-76 -2207,-139 -2208,-140 -2,-2 -15,-68 -29,-148 -98,-539 -285,-1132 -497,-1579 -33,-68 -57,-126 -54,-129 3,-3 1014,-295 2247,-649 1234,-353 2252,-646 2264,-651 20,-7 8,-43 -277,-857 -164,-467 -299,-853 -301,-857 -2,-4 -1083,368 -2403,828 -1320,460 -2405,837 -2411,838 -6,0 -47,-39 -90,-89 C 28892,4521 28124,3914 27225,3408 26867,3206 26029,2777 25540,2545 23092,1384 20872,725 19025,610 c -184,-11 -598,-17 -850,-12 -77,1 -302,0 -500,-4 -368,-7 -619,1 -955,32 -1618,145 -3487,683 -5545,1597 -776,344 -1863,885 -2438,1213 -533,305 -1057,673 -1473,1035 -259,226 -591,558 -750,751 -22,26 -42,47 -47,47 -4,1 -1081,-373 -2395,-831 -1313,-457 -2396,-833 -2407,-835 -18,-4 -48,75 -318,848 -164,469 -294,855 -290,860 4,4 1023,298 2263,654 1240,356 2257,649 2259,651 2,2 -17,48 -42,101 -230,490 -401,1027 -507,1596 -17,88 -31,161 -33,162 -1,1 -996,63 -2212,139 -1215,76 -2211,138 -2211,139 -3,3 -173,1541 -171,1543 1,2 1016,-54 2254,-124 1239,-69 2255,-124 2257,-121 3,2 10,72 16,154 96,1335 496,2771 1116,4003 l 112,224 -28,176 c -180,1112 -307,2222 -364,3202 -55,923 -55,1844 -1,2630 84,1200 294,2241 620,3065 138,348 416,845 474,845 68,0 624,-114 906,-185 1550,-394 2828,-1105 3929,-2185 451,-443 778,-828 1376,-1620 415,-549 527,-686 696,-851 113,-109 181,-162 274,-212 141,-76 249,-85 462,-37 531,118 1253,181 2293,199 722,12 2752,7 3025,-7 823,-44 1277,-94 1702,-187 176,-39 223,-42 316,-20 169,40 351,177 577,435 125,143 232,280 565,720 583,772 877,1117 1336,1570 321,316 566,528 899,776 1060,791 2312,1317 3753,1578 103,19 192,35 199,35 6,1 33,-29 61,-66 z"
       id="path4530" />
  </g>
</svg>
